#!OML:ASF I:\Actors\actors\Patient Classification 1\Patient 1\Session 1\Subject1.ASF
:FULLY-SPECIFIED
:DEGREES
104
root -0.40923 17.5128 7.70111 7.20236 -1.96254 -7.85274
lowerback 3.80653 0.420241 5.52806
upperback -7.90949 1.14765 0.871011
thorax -10.5076 0.151781 -2.30494
lowerneck -10.2832 -4.87044 -3.0928
upperneck 14.7848 -8.26843 12.4419
head 6.87645 -3.18897 3.75435
rclavicle 4.77083e-015 1.07344e-014
rhumerus -44.9657 -12.0011 -81.129
rradius 40.648
rwrist 11.2365
rhand 1.42767 -41.6997
rfingers 7.12502
rthumb 26.9571 -69.7967
lclavicle 4.77083e-015 1.07344e-014
lhumerus -36.4713 9.24392 81.8304
lradius 41.3826
lwrist 7.99618
lhand -13.9489 -5.40082
lfingers 7.12502
lthumb 12.1784 24.2247
rfemur -1.38764 24.3891 25.8451
rtibia 2.40652
rfoot -11.3752 -21.0335
rtoes 0.738479
lfemur 7.29668 -39.9087 -14.9343
ltibia -4.19517
lfoot -16.1687 48.0298
ltoes 6.29961
105
root -0.408721 17.5161 7.68467 7.10978 -1.94252 -7.78838
lowerback 3.95839 0.391727 5.52923
upperback -7.89519 1.11408 0.810953
thorax -10.5851 0.130372 -2.36798
lowerneck -10.4323 -4.64488 -2.90157
upperneck 14.8977 -8.00741 12.4735
head 6.91164 -3.03982 3.75797
rclavicle 1.04362e-014 -2.38542e-014
rhumerus -43.9524 -9.82678 -82.769
rradius 42.5089
rwrist 8.67877
rhand 0.14395 -42.9354
rfingers 7.12502
rthumb 25.7282 -71.2163
lclavicle 1.04362e-014 -2.38542e-014
lhumerus -34.7152 10.0009 81.264
lradius 41.4797
lwrist 10.7959
lhand -13.3741 -4.60355
lfingers 7.12502
lthumb 12.7326 24.9883
rfemur -1.377 24.2793 25.7729
rtibia 2.43805
rfoot -11.3131 -20.9443
rtoes 0.727477
lfemur 7.22867 -39.7257 -14.9607
ltibia -4.11612
lfoot -16.0588 47.831
ltoes 6.09653
106
root -0.410605 17.5188 7.66608 7.04259 -1.90403 -7.74371
lowerback 4.07569 0.364364 5.51841
upperback -7.91391 1.08014 0.755032
thorax -10.6793 0.108939 -2.41934
lowerneck -10.5734 -4.4171 -2.79633
upperneck 15.1311 -7.7582 12.582
head 6.99198 -2.89033 3.80166
rclavicle -8.54774e-015 -1.59028e-015
rhumerus -42.9903 -7.49649 -84.383
rradius 44.5845
rwrist 6.52001
rhand -1.23692 -43.9678
rfingers 7.12502
rthumb 24.4051 -72.4335
lclavicle -8.54774e-015 -1.59028e-015
lhumerus -32.772 10.6952 80.7233
lradius 41.4223
lwrist 13.6912
lhand -13.6535 -3.85853
lfingers 7.12502
lthumb 12.4632 25.7499
rfemur -1.41521 24.2229 25.7246
rtibia 2.49609
rfoot -11.241 -20.9305
rtoes 0.65314
lfemur 7.09215 -39.5251 -14.9059
ltibia -4.0397
lfoot -15.7234 47.6306
ltoes 5.70617
107
root -0.412506 17.5206 7.64955 6.9767 -1.9032 -7.73889
lowerback 4.14143 0.335053 5.54735
upperback -7.94691 1.04555 0.715431
thorax -10.759 0.0848728 -2.47454
lowerneck -10.6243 -4.18856 -2.59073
upperneck 15.3591 -7.49704 12.5391
head 7.04345 -2.74516 3.78176
rclavicle -1.68967e-015 0
rhumerus -42.006 -4.80669 -85.9927
rradius 46.8494
rwrist 4.82783
rhand -1.68754 -45.0423
rfingers 7.12502
rthumb 23.973 -73.5654
lclavicle -1.68967e-015 0
lhumerus -30.6517 11.36 80.2427
lradius 41.1823
lwrist 15.7791
lhand -14.9058 -3.31959
lfingers 7.12502
lthumb 11.2556 26.3584
rfemur -1.45778 24.2152 25.734
rtibia 2.59583
rfoot -11.2231 -20.9232
rtoes 0.462625
lfemur 7.04824 -39.403 -14.8719
ltibia -4.00575
lfoot -15.4951 47.535
ltoes 5.59089
108
root -0.414912 17.5217 7.63108 6.95875 -1.89391 -7.68572
lowerback 4.16298 0.279969 5.5298
upperback -7.99128 0.96823 0.668862
thorax -10.8285 0.0436138 -2.50502
lowerneck -10.6376 -3.9649 -2.44339
upperneck 15.5554 -7.24556 12.5883
head 7.08538 -2.60321 3.80132
rclavicle 7.85199e-015 -3.73715e-014
rhumerus -40.9557 -1.7266 -87.6446
rradius 49.2715
rwrist 3.14076
rhand -1.64292 -46.0181
rfingers 7.12502
rthumb 24.0158 -74.5357
lclavicle 7.85199e-015 -3.73715e-014
lhumerus -28.2961 12.0695 79.8089
lradius 40.7548
lwrist 16.8694
lhand -16.6862 -2.89999
lfingers 7.12502
lthumb 9.53812 26.8641
rfemur -1.57783 24.2009 25.6566
rtibia 2.71532
rfoot -11.2458 -20.9127
rtoes 0.526195
lfemur 6.91671 -39.3291 -14.8458
ltibia -3.93451
lfoot -15.4791 47.4313
ltoes 5.70232
109
root -0.418259 17.5226 7.61037 6.9289 -1.90105 -7.64644
lowerback 4.05459 0.188997 5.42114
upperback -7.89962 0.826093 0.698261
thorax -10.6709 -0.00899332 -2.39276
lowerneck -10.8012 -3.70723 -2.27192
upperneck 15.7266 -6.93885 12.5784
head 7.13899 -2.43353 3.80078
rclavicle 2.21645e-014 -2.06736e-014
rhumerus -39.5422 1.55911 -89.1137
rradius 51.7136
rwrist 1.67739
rhand -1.48401 -47.1242
rfingers 7.12502
rthumb 24.1682 -75.6216
lclavicle 2.21645e-014 -2.06736e-014
lhumerus -25.5363 13.066 79.4647
lradius 40.3003
lwrist 17.5865
lhand -17.9029 -2.16628
lfingers 7.12502
lthumb 8.36401 27.6481
rfemur -1.71816 24.1314 25.5853
rtibia 2.8604
rfoot -11.2228 -20.8327
rtoes 0.648278
lfemur 6.77461 -39.2227 -14.7872
ltibia -3.85946
lfoot -15.3928 47.3136
ltoes 5.58911
110
root -0.421795 17.5238 7.58926 6.84308 -1.88969 -7.6538
lowerback 3.67528 0.0481592 5.22021
upperback -7.55989 0.591454 0.848466
thorax -10.0779 -0.0786226 -2.08742
lowerneck -11.0843 -3.39051 -1.91688
upperneck 15.7067 -6.50319 12.2532
head 7.1255 -2.22095 3.6745
rclavicle -1.2921e-015 -3.65764e-014
rhumerus -37.6539 5.25625 -90.3708
rradius 54.3624
rwrist -0.251969
rhand -1.89985 -49.0489
rfingers 7.12502
rthumb 23.7694 -77.5988
lclavicle -1.2921e-015 -3.65764e-014
lhumerus -22.2429 14.3643 79.3978
lradius 39.7627
lwrist 18.4233
lhand -18.8009 -1.5844
lfingers 7.12502
lthumb 7.49735 28.2627
rfemur -1.78408 23.9866 25.595
rtibia 2.98677
rfoot -11.1688 -20.6976
rtoes 0.598029
lfemur 6.73515 -39.1453 -14.7364
ltibia -3.82687
lfoot -15.1961 47.2459
ltoes 5.24381
111
root -0.432971 17.534 7.5761 6.39133 -1.50964 -7.58349
lowerback 4.51974 -0.123772 5.35581
upperback -7.81625 0.421226 0.650088
thorax -10.8925 -0.20685 -2.35738
lowerneck -10.8161 -3.25124 -1.42563
upperneck 16.0812 -6.39497 12.013
head 7.16755 -2.15361 3.53131
rclavicle -1.13307e-014 3.18055e-015
rhumerus -37.2317 8.53441 -91.9041
rradius 57.6912
rwrist -3.40526
rhand -2.14682 -50.9526
rfingers 7.12502
rthumb 23.5326 -79.533
lclavicle -1.13307e-014 3.18055e-015
lhumerus -19.9621 14.4988 79.1079
lradius 39.2125
lwrist 19.5875
lhand -20.3331 -1.79363
lfingers 7.12502
lthumb 6.01822 28.1009
rfemur -1.11055 24.1628 25.8612
rtibia 2.79765
rfoot -11.2178 -21.2698
rtoes 0.832492
lfemur 7.13432 -39.063 -14.9616
ltibia -3.86794
lfoot -14.5955 46.875
ltoes 4.24055
112
root -0.440798 17.5381 7.56034 6.15334 -1.34543 -7.55467
lowerback 4.85028 -0.2832 5.40589
upperback -7.88614 0.2284 0.57424
thorax -11.1908 -0.317245 -2.44069
lowerneck -10.7015 -3.05266 -1.04463
upperneck 16.2682 -6.16306 11.7745
head 7.17179 -2.03556 3.41545
rclavicle 1.53064e-014 -2.54444e-014
rhumerus -36.372 12.0318 -93.1696
rradius 60.9164
rwrist -6.71851
rhand -3.38172 -51.5493
rfingers 7.12502
rthumb 22.3476 -80.2769
lclavicle 1.53064e-014 -2.54444e-014
lhumerus -17.2467 14.8987 78.9906
lradius 38.707
lwrist 21.2207
lhand -22.1012 -1.4212
lfingers 7.12502
lthumb 4.31102 28.5149
rfemur -0.839817 24.1691 25.9863
rtibia 2.75109
rfoot -11.1786 -21.4517
rtoes 0.788339
lfemur 7.32704 -39.0452 -15.0659
ltibia -3.87308
lfoot -14.4367 46.7369
ltoes 3.86915
113
root -0.446511 17.5396 7.54315 6.04183 -1.3512 -7.56852
lowerback 4.93536 -0.427466 5.4017
upperback -7.89645 0.0394337 0.584038
thorax -11.2711 -0.410018 -2.40018
lowerneck -10.5948 -2.81192 -0.852576
upperneck 16.3617 -5.85527 11.686
head 7.15312 -1.88376 3.38684
rclavicle 7.7526e-015 -2.38542e-015
rhumerus -35.2233 15.6269 -94.0802
rradius 64.4306
rwrist -8.66352
rhand -2.82759 -52.6886
rfingers 7.12502
rthumb 22.8794 -81.3513
lclavicle 7.7526e-015 -2.38542e-015
lhumerus -14.3213 15.5598 78.997
lradius 38.2659
lwrist 23.212
lhand -23.6639 -0.237911
lfingers 7.12502
lthumb 2.80199 29.7234
rfemur -0.813146 24.133 26.0497
rtibia 2.8257
rfoot -11.1819 -21.385
rtoes 0.954576
lfemur 7.42665 -39.0408 -15.0813
ltibia -3.89456
lfoot -14.6759 46.7273
ltoes 4.28841
114
root -0.451169 17.5411 7.52558 5.96106 -1.30004 -7.58647
lowerback 5.03164 -0.577836 5.4286
upperback -7.93385 -0.154142 0.579747
thorax -11.3905 -0.509719 -2.39064
lowerneck -10.4348 -2.56846 -0.760511
upperneck 16.4266 -5.55194 11.7645
head 7.1245 -1.7291 3.42929
rclavicle 3.67752e-015 3.10104e-014
rhumerus -34.2098 19.553 -95.0409
rradius 67.7891
rwrist -12.305
rhand -5.76876 -51.9564
rfingers 7.12502
rthumb 20.0546 -80.9414
lclavicle 3.67752e-015 3.10104e-014
lhumerus -11.3349 16.2222 79.1886
lradius 37.7694
lwrist 25.1844
lhand -24.4523 0.333359
lfingers 7.12502
lthumb 2.04051 30.3033
rfemur -0.808383 24.0875 26.0986
rtibia 2.89641
rfoot -11.2591 -21.3301
rtoes 1.54958
lfemur 7.42468 -38.9562 -15.0082
ltibia -3.92768
lfoot -14.4821 46.6088
ltoes 4.16294
